<svg width="62" height="62" viewBox="0 0 62 62" fill="none" xmlns="http://www.w3.org/2000/svg">
<path d="M42.6251 12.9167C46.3446 12.9167 49.5872 14.7351 52.2172 18.156C53.0378 19.2235 52.9009 20.7423 51.9026 21.6458C49.141 24.1453 47.795 27.205 47.795 31C47.795 35.2255 49.7493 37.5484 53.2947 39.6588C54.3519 40.2881 54.8186 41.5758 54.4101 42.7363C53.2103 46.1447 49.8332 51.8326 47.7969 53.9365C45.2073 56.6119 43.7786 57.4785 40.7517 57.4785C39.9879 57.4785 39.3766 57.4084 38.5256 57.1923L37.8363 57.0017L37.0205 56.7493L34.8064 56.0151L33.7554 55.6886C32.7725 55.4056 32.0361 55.2707 31.453 55.2707C31.3209 55.2707 31.1825 55.278 31.0371 55.2926C30.5668 55.34 30.1031 55.4419 29.4525 55.6477L28.7324 55.89L26.7511 56.6114L25.8299 56.9243C24.5551 57.3332 23.7111 57.4785 22.6175 57.4785C20.3649 57.4785 18.4769 56.5338 16.8274 54.9904C16.5004 54.6844 16.1976 54.3686 15.8908 54.0224L14.8604 52.814C13.5371 51.2269 12.4754 49.7289 11.1854 47.3485C8.56029 42.5048 6.98621 37.0288 6.98621 31C6.98621 19.62 13.8349 12.9167 21.1598 12.9167C23.0678 12.9167 24.6231 13.4379 26.7838 14.5445L28.1577 15.2588C29.6353 16.0138 30.5343 16.3125 31.453 16.3125C32.3128 16.3125 33.2201 16.0444 34.6239 15.4017L36.4098 14.5589C38.942 13.3855 40.502 12.9167 42.6251 12.9167ZM42.6251 18.0834C41.3297 18.0834 40.2495 18.4459 37.9833 19.5288L37.7146 19.6572L36.118 20.3904C34.4095 21.1199 33.0195 21.4792 31.453 21.4792C29.5279 21.4792 27.9511 20.9553 25.7907 19.8514L24.4146 19.1359C22.9369 18.3791 22.0543 18.0834 21.1598 18.0834C16.6638 18.0834 12.1529 22.4985 12.1529 31C12.1529 36.1067 13.4895 40.7566 15.7278 44.8867C16.9515 47.1447 17.9109 48.4406 19.2349 49.9855L19.95 50.8137L20.1404 51.0136L20.688 51.5072C21.3444 52.0421 21.9753 52.3119 22.6175 52.3119C22.9796 52.3119 23.3448 52.2591 23.8652 52.115L24.443 51.939L25.158 51.6935L27.167 50.9632C28.5318 50.4867 29.4235 50.2624 30.5188 50.152C30.8329 50.1203 31.1439 50.104 31.453 50.104C32.7699 50.104 34.1033 50.3794 35.8054 50.91L36.0987 51.0026L37.5922 51.4986L39.0381 51.964L39.7823 52.1712L40.162 52.2535C40.2193 52.2639 40.2738 52.2728 40.3261 52.2802L40.6179 52.3086L40.9972 52.3087C41.9341 52.282 42.3628 52.0661 43.4692 50.9686L44.0844 50.3432C44.6178 49.7921 45.3423 48.7952 46.0973 47.6166L46.7482 46.5681L47.3915 45.4676L48.0049 44.352C48.2018 43.9818 48.39 43.6152 48.5657 43.2584L48.7526 42.8627L48.3424 42.5603C47.649 42.0269 47.015 41.4509 46.3895 40.7668L45.9211 40.2325C43.8289 37.7458 42.6283 34.6739 42.6283 31C42.6283 26.801 43.882 23.1112 46.3539 20.02L46.6266 19.6902L46.2558 19.3829C45.238 18.5958 44.1782 18.1812 43.051 18.0988L42.6251 18.0834ZM40.681 2.59357C40.7036 2.69824 40.7271 2.80298 40.7515 2.90733V3.45499C40.7515 4.69685 40.4503 6.12086 39.8558 7.6872C39.2327 9.2038 38.2589 10.6312 36.9655 11.9194C35.7558 13.0545 34.6368 13.806 33.6478 14.1457C33.3211 14.2432 32.8735 14.3392 32.3329 14.4256C31.852 14.5005 31.3695 14.5649 30.8858 14.6187C30.9917 11.7363 31.8016 9.20448 33.2962 7.08804C34.7984 4.96087 37.2816 3.4498 40.681 2.59357Z" fill="white"/>
</svg>
