<svg width="62" height="62" viewBox="0 0 62 62" fill="none" xmlns="http://www.w3.org/2000/svg">
<path d="M56.8334 9.04169C57.2173 9.04943 57.5815 9.1196 57.9451 9.29258C58.3204 9.47198 58.6505 9.74228 58.9 10.075C59.0638 10.3189 59.0254 10.2457 58.9 10.075C59.2346 10.5212 59.4167 11.0675 59.4167 11.625C59.4157 11.4874 59.4101 11.4277 59.4167 11.625V50.375C59.4167 51.8018 58.2601 52.9584 56.8334 52.9584H5.16671C3.73997 52.9584 2.58337 51.8018 2.58337 50.375V11.625C2.58337 11.1625 2.70884 10.7033 2.94484 10.3067C3.42578 9.4963 4.25881 9.05999 5.16671 9.04169H56.8334ZM54.25 16.7917L32.55 33.0667C31.7234 33.6867 30.6177 33.7487 29.7352 33.2527L29.45 33.0667L7.75004 16.7917V47.7917H54.25V16.7917ZM12.9167 14.2084L31 27.7709L49.0834 14.2084H12.9167Z" fill="white"/>
</svg>
