<svg width="62" height="62" viewBox="0 0 62 62" fill="none" xmlns="http://www.w3.org/2000/svg">
<path fill-rule="evenodd" clip-rule="evenodd" d="M35.0027 9.04167L34.9263 9.04205C30.7409 9.08438 27.382 12.5116 27.4242 16.6971L27.3204 27.7623C27.3021 29.1758 26.151 30.3121 24.7373 30.3121H18.0833V34.9581H24.8582C26.2849 34.9581 27.4415 36.1147 27.4415 37.5414V52.9583H33.6095V37.5414C33.6095 36.1147 34.7661 34.9581 36.1928 34.9581H42.7741L43.4888 30.3121H36.1928C34.7661 30.3121 33.6095 29.1555 33.6095 27.7287V18.8152C33.6095 15.9854 35.9035 13.6913 38.7333 13.6913H43.9166V9.04167H35.0027ZM34.8739 3.87565L35.0027 3.875H46.5C47.9267 3.875 49.0833 5.0316 49.0833 6.45833V16.2746C49.0833 17.7013 47.9267 18.8579 46.5 18.8579H38.7762V25.1454H46.5C47.2537 25.1454 47.9698 25.4746 48.4606 26.0466C48.9514 26.6187 49.1679 27.3766 49.0533 28.1215L47.5437 37.9342C47.3498 39.1944 46.2654 40.1247 44.9904 40.1247H38.7762V55.5417C38.7762 56.9684 37.6196 58.125 36.1928 58.125H24.8582C23.4315 58.125 22.2749 56.9684 22.2749 55.5417V40.1247H15.5C14.0732 40.1247 12.9166 38.9681 12.9166 37.5414V27.7287C12.9166 26.302 14.0732 25.1454 15.5 25.1454H22.1873L22.2747 18.4107L22.2578 16.7496C22.1867 9.71082 27.8352 3.94694 34.8739 3.87565Z" fill="white"/>
</svg>
