<svg width="62" height="62" viewBox="0 0 62 62" fill="none" xmlns="http://www.w3.org/2000/svg">
<path fill-rule="evenodd" clip-rule="evenodd" d="M15.1657 13.8601C10.8296 17.7988 7.75004 23.429 7.75004 30.354C7.75004 44.9507 19.3836 54.2502 31 54.2502C37.0319 54.2502 44.1602 51.781 48.9789 45.5634C51.9558 41.7222 54.3626 37.1931 54.3417 29.7083L33.5834 29.7085V33.584H43.2709C44.6976 33.584 45.8542 34.7406 45.8542 36.1673C45.8542 39.142 44.0091 42.0676 41.4871 44.138C38.8816 46.2769 35.2401 47.7924 31 47.7924C20.1722 47.7924 14.2084 38.4968 14.2084 30.354C14.2084 21.7464 21.9012 14.2082 31 14.2082C33.4703 14.2082 35.6021 14.8161 37.1858 15.4496L40.932 9.83026C40.7006 9.72147 40.4466 9.60944 40.1694 9.49647C38.1144 8.65903 34.7332 7.74998 29.7084 7.74998C25.0806 7.74998 19.548 9.87934 15.1657 13.8601ZM46.3224 7.15052C47.2495 8.01328 47.4145 9.42089 46.712 10.4746L40.2537 20.1621C39.5173 21.2666 38.0637 21.6333 36.8916 21.0102C35.7085 20.3812 33.5837 19.3748 31 19.3748C24.5989 19.3748 19.375 24.7533 19.375 30.354C19.375 36.4196 23.7445 42.6258 31 42.6258C33.9934 42.6258 36.4872 41.5579 38.2088 40.1446C38.7714 39.6828 39.224 39.21 39.5807 38.7506H31C29.5733 38.7506 28.4167 37.594 28.4167 36.1673V27.1252C28.4167 26.4401 28.6889 25.783 29.1734 25.2985C29.6578 24.8141 30.3149 24.5419 31.0001 24.5419L56.8331 24.5415C58.1932 24.5415 59.3205 25.596 59.411 26.953C60.1057 37.3736 56.9856 43.6665 53.0628 48.7283C47.0941 56.4298 38.3271 59.4169 31 59.4169C16.7831 59.4169 2.58337 48.0508 2.58337 30.354C2.58337 21.7792 6.42954 14.8157 11.6917 10.0357C16.9077 5.2977 23.646 2.58331 29.7084 2.58331C35.3738 2.58331 39.4197 3.61176 42.1192 4.71182C43.4654 5.26043 44.4654 5.82222 45.1554 6.27192C45.5001 6.49656 45.7666 6.6927 45.9596 6.84449C46.0561 6.92038 46.1342 6.98515 46.1945 7.03682C46.2246 7.06265 46.2503 7.08521 46.2716 7.10424L46.3003 7.13012L46.3122 7.14101L46.3175 7.14594L46.32 7.14827C46.32 7.14827 43.3845 10.3076 46.3224 7.15052Z" fill="white"/>
</svg>
