<svg width="31" height="31" viewBox="0 0 31 31" fill="none" xmlns="http://www.w3.org/2000/svg">
<path d="M15.5 0.375C7.14669 0.375 0.375 7.14669 0.375 15.5C0.375 23.8533 7.14669 30.625 15.5 30.625C23.8533 30.625 30.625 23.8533 30.625 15.5C30.625 14.4518 30.5182 13.427 30.3143 12.4365C30.1854 11.8105 29.6422 11.3559 29.0033 11.3392C28.3643 11.3226 27.7982 11.7484 27.637 12.3669C26.8106 15.5368 23.9266 17.875 20.5 17.875C16.4269 17.875 13.125 14.5731 13.125 10.5C13.125 7.07339 15.4632 4.18945 18.6331 3.36298C19.2516 3.20174 19.6774 2.6356 19.6608 1.99668C19.6441 1.35776 19.1894 0.814538 18.5634 0.68569C17.573 0.481839 16.5482 0.375 15.5 0.375Z" fill="#C2C9D1"/>
<path d="M15.5 0.375C7.14669 0.375 0.375 7.14669 0.375 15.5C0.375 23.8533 7.14669 30.625 15.5 30.625C23.8533 30.625 30.625 23.8533 30.625 15.5C30.625 14.4518 30.5182 13.427 30.3143 12.4365C30.1854 11.8105 29.6422 11.3559 29.0033 11.3392C28.3643 11.3226 27.7982 11.7484 27.637 12.3669C26.8106 15.5368 23.9266 17.875 20.5 17.875C16.4269 17.875 13.125 14.5731 13.125 10.5C13.125 7.07339 15.4632 4.18945 18.6331 3.36298C19.2516 3.20174 19.6774 2.6356 19.6608 1.99668C19.6441 1.35776 19.1894 0.814538 18.5634 0.68569C17.573 0.481839 16.5482 0.375 15.5 0.375Z" fill="white" fill-opacity="0.75"/>
</svg>
