<svg width="34" height="33" viewBox="0 0 34 33" fill="none" xmlns="http://www.w3.org/2000/svg">
<path fill-rule="evenodd" clip-rule="evenodd" d="M1.875 4.125C1.875 2.60622 3.10622 1.375 4.625 1.375H12.875C14.3938 1.375 15.625 2.60622 15.625 4.125V12.375C15.625 13.8938 14.3938 15.125 12.875 15.125H4.625C3.10622 15.125 1.875 13.8938 1.875 12.375V4.125ZM12.875 4.125H4.625V12.375H12.875V4.125ZM18.375 4.125C18.375 2.60622 19.6062 1.375 21.125 1.375H29.375C30.8938 1.375 32.125 2.60622 32.125 4.125V12.375C32.125 13.8938 30.8938 15.125 29.375 15.125H21.125C19.6062 15.125 18.375 13.8938 18.375 12.375V4.125ZM29.375 4.125H21.125V12.375H29.375V4.125ZM1.875 20.625C1.875 19.1062 3.10622 17.875 4.625 17.875H12.875C14.3938 17.875 15.625 19.1062 15.625 20.625V28.875C15.625 30.3938 14.3938 31.625 12.875 31.625H4.625C3.10622 31.625 1.875 30.3938 1.875 28.875V20.625ZM12.875 20.625H4.625V28.875H12.875V20.625ZM18.375 19.25C18.375 18.4906 18.9906 17.875 19.75 17.875H30.75C31.5094 17.875 32.125 18.4906 32.125 19.25C32.125 20.0094 31.5094 20.625 30.75 20.625H19.75C18.9906 20.625 18.375 20.0094 18.375 19.25ZM23.875 24.75C23.875 23.9906 24.4906 23.375 25.25 23.375H30.75C31.5094 23.375 32.125 23.9906 32.125 24.75C32.125 25.5094 31.5094 26.125 30.75 26.125H25.25C24.4906 26.125 23.875 25.5094 23.875 24.75ZM18.375 30.25C18.375 29.4906 18.9906 28.875 19.75 28.875H30.75C31.5094 28.875 32.125 29.4906 32.125 30.25C32.125 31.0094 31.5094 31.625 30.75 31.625H19.75C18.9906 31.625 18.375 31.0094 18.375 30.25Z" fill="#C2C9D1"/>
<path fill-rule="evenodd" clip-rule="evenodd" d="M1.875 4.125C1.875 2.60622 3.10622 1.375 4.625 1.375H12.875C14.3938 1.375 15.625 2.60622 15.625 4.125V12.375C15.625 13.8938 14.3938 15.125 12.875 15.125H4.625C3.10622 15.125 1.875 13.8938 1.875 12.375V4.125ZM12.875 4.125H4.625V12.375H12.875V4.125ZM18.375 4.125C18.375 2.60622 19.6062 1.375 21.125 1.375H29.375C30.8938 1.375 32.125 2.60622 32.125 4.125V12.375C32.125 13.8938 30.8938 15.125 29.375 15.125H21.125C19.6062 15.125 18.375 13.8938 18.375 12.375V4.125ZM29.375 4.125H21.125V12.375H29.375V4.125ZM1.875 20.625C1.875 19.1062 3.10622 17.875 4.625 17.875H12.875C14.3938 17.875 15.625 19.1062 15.625 20.625V28.875C15.625 30.3938 14.3938 31.625 12.875 31.625H4.625C3.10622 31.625 1.875 30.3938 1.875 28.875V20.625ZM12.875 20.625H4.625V28.875H12.875V20.625ZM18.375 19.25C18.375 18.4906 18.9906 17.875 19.75 17.875H30.75C31.5094 17.875 32.125 18.4906 32.125 19.25C32.125 20.0094 31.5094 20.625 30.75 20.625H19.75C18.9906 20.625 18.375 20.0094 18.375 19.25ZM23.875 24.75C23.875 23.9906 24.4906 23.375 25.25 23.375H30.75C31.5094 23.375 32.125 23.9906 32.125 24.75C32.125 25.5094 31.5094 26.125 30.75 26.125H25.25C24.4906 26.125 23.875 25.5094 23.875 24.75ZM18.375 30.25C18.375 29.4906 18.9906 28.875 19.75 28.875H30.75C31.5094 28.875 32.125 29.4906 32.125 30.25C32.125 31.0094 31.5094 31.625 30.75 31.625H19.75C18.9906 31.625 18.375 31.0094 18.375 30.25Z" fill="white" fill-opacity="0.75"/>
</svg>
