<svg id="Group_6" data-name="Group 6" xmlns="http://www.w3.org/2000/svg" width="240" height="172.844" viewBox="0 0 240 172.844">
  <path id="Path_29" data-name="Path 29" d="M48.241,7.236A7.236,7.236,0,0,1,55.477,0H79.6a7.236,7.236,0,0,1,0,14.472H55.477A7.236,7.236,0,0,1,48.241,7.236Z" fill="#616569"/>
  <path id="Path_30" data-name="Path 30" d="M142.312,36.181a7.236,7.236,0,0,1,7.236-7.236h-2.412a7.236,7.236,0,0,0,0-14.472h-9.649a7.236,7.236,0,0,1,0-14.472h45.83a7.236,7.236,0,0,1,0,14.472h-9.649a7.236,7.236,0,0,0,0,14.472h21.709a7.236,7.236,0,0,1,0,14.472H149.548A7.236,7.236,0,0,1,142.312,36.181Z" fill="#616569"/>
  <path id="Path_31" data-name="Path 31" d="M48.241,79.6a7.236,7.236,0,0,1,7.236-7.236h20.5a60.311,60.311,0,0,1,96.491,0h53.061a7.236,7.236,0,0,1,0,14.472H197.789a7.236,7.236,0,0,0,0,14.473h3.618a7.236,7.236,0,1,1,0,14.472H184.093A60.309,60.309,0,0,1,75.976,144.724H7.236a7.236,7.236,0,0,1,0-14.473H41.005a7.236,7.236,0,1,0,0-14.472H31.357a7.236,7.236,0,1,1,0-14.472H64.349a59.909,59.909,0,0,1,3.6-14.473H55.477A7.236,7.236,0,0,1,48.241,79.6Z" fill="#616569"/>
  <path id="Path_32" data-name="Path 32" d="M77.186,28.945a7.236,7.236,0,0,0,0,14.472H94.07a7.236,7.236,0,1,0,0-14.472Z" fill="#616569"/>
  <path id="Path_33" data-name="Path 33" d="M15.678,43.417a7.236,7.236,0,1,0,0,14.472H53.065a7.236,7.236,0,1,0,0-14.472Z" fill="#616569"/>
  <path id="Path_34" data-name="Path 34" d="M203.819,137.487a7.237,7.237,0,0,0,0,14.473H219.5a7.237,7.237,0,1,0,0-14.473Z" fill="#616569"/>
  <path id="Path_35" data-name="Path 35" d="M225.528,123.015a7.236,7.236,0,1,1,7.236,7.236A7.236,7.236,0,0,1,225.528,123.015Z" fill="#616569"/>
  <path id="Path_36" data-name="Path 36" d="M67.919,108.543a56.311,56.311,0,0,1,87.265-47.031,4,4,0,1,0,4.406-6.678,64.307,64.307,0,1,0,28.932,53.709,4,4,0,0,0-8,0,56.3,56.3,0,0,1-112.6,0ZM95.9,97.556a6,6,0,1,0-8.485,8.485l32.071,32.071a6,6,0,0,0,8.485,0l66.824-66.824A6,6,0,0,0,186.31,62.8l-62.581,62.581Z" fill="#fbb216" fill-rule="evenodd"/>
</svg>
